<svg width="40" height="40" viewBox="0 0 40 40" fill="none" xmlns="http://www.w3.org/2000/svg"><path d="M37.9947 18.6048L37.9846 18.334L37.9644 17.7922C37.9549 17.6117 37.9563 17.4311 37.9376 17.2508L37.8821 16.71C37.8258 15.9876 37.6887 15.272 37.5586 14.5576L37.3011 13.4962L37.2687 13.3636C37.257 13.3197 37.2418 13.2765 37.2287 13.2329L37.1462 12.972L36.9804 12.4506C36.5134 11.0684 35.8822 9.737 35.0897 8.50671C34.2967 7.27794 33.3508 6.14403 32.2655 5.16614C30.0971 3.20481 27.4419 1.83062 24.6426 1.13197C23.243 0.779567 21.8073 0.586411 20.371 0.554622C18.9343 0.524649 17.499 0.660383 16.0965 0.936997L15.5703 1.04034L15.0509 1.17325C14.7052 1.26296 14.3572 1.344 14.0199 1.46167L13.5105 1.62576L13.256 1.70791L13.1924 1.72849C13.1253 1.75191 13.1567 1.74171 13.134 1.74999L13.1042 1.7618L12.9848 1.80903L12.0298 2.18858L11.0334 2.66592C10.9489 2.70426 10.8703 2.74847 10.7929 2.79408L10.5585 2.9284L10.0905 3.19745C9.47747 3.57417 8.88215 3.98168 8.32478 4.43752C7.20459 5.34144 6.21763 6.40349 5.38745 7.56737C4.55627 8.73176 3.88981 10.0018 3.37238 11.3196C2.85626 12.6388 2.48736 14.0079 2.26236 15.3953C2.04259 16.7839 1.96239 18.1891 2.01612 19.5861L2.03917 20.1098C2.05034 20.2841 2.06845 20.4581 2.08314 20.6321C2.10115 20.806 2.11102 20.9802 2.13577 21.1533L2.20722 21.6723L2.24314 21.9315L2.29064 22.1891L2.38583 22.7038C2.41944 22.8748 2.46382 23.0442 2.50226 23.2141C2.54422 23.3837 2.57672 23.5547 2.62905 23.7216L2.77395 24.2244L2.81018 24.3499L2.85304 24.4738L2.93938 24.7209C3.04705 25.0524 3.18864 25.3727 3.32247 25.6943C3.61359 26.3285 3.95069 26.9433 4.37091 27.5009C4.40804 27.5499 4.47738 27.5636 4.53011 27.5299C4.58575 27.4945 4.60236 27.4205 4.56704 27.3647L4.56563 27.3625C4.20488 26.7917 3.92211 26.1768 3.68493 25.5464C3.57797 25.2259 3.46365 24.9093 3.38255 24.581L3.31543 24.3374L3.28152 24.2158L3.25425 24.092L3.14497 23.598C2.86945 22.2764 2.7823 20.9214 2.79619 19.5767C2.83916 16.8861 3.39764 14.2069 4.47245 11.7806C5.54765 9.35694 7.18034 7.20427 9.26404 5.64611C9.78066 5.25172 10.3302 4.90325 10.8938 4.58234L11.3242 4.35447L11.539 4.24033C11.6105 4.20117 11.6821 4.16383 11.755 4.13447L12.6217 3.74977L13.585 3.39938L13.7056 3.35569L13.7358 3.34479C13.7333 3.3459 13.7841 3.32682 13.7377 3.34458L13.7967 3.32753L14.0329 3.25931L14.5046 3.12257C14.8168 3.02276 15.1381 2.95918 15.4568 2.88622L15.9348 2.77803L16.4183 2.69851C17.705 2.48063 19.0118 2.38728 20.3105 2.44733C21.6086 2.51131 22.897 2.7086 24.1439 3.04981C26.6356 3.7307 28.9639 4.98177 30.8372 6.72855C31.7765 7.59785 32.5935 8.59381 33.2747 9.67433C33.9558 10.7557 34.4962 11.9246 34.8953 13.1437L35.0364 13.6041L35.1073 13.834C35.1187 13.8725 35.1319 13.9104 35.142 13.9493L35.1691 14.067L35.3875 15.0071C35.4946 15.643 35.6129 16.2775 35.6554 16.9247L35.7009 17.4078C35.7166 17.5688 35.7125 17.732 35.7195 17.894L35.733 18.3806L35.7399 18.6239C35.7422 18.705 35.7462 18.7861 35.7409 18.8675L35.7059 19.8437L35.6974 20.0877C35.6921 20.1681 35.6823 20.2467 35.675 20.3264L35.6286 20.8024C35.594 21.1235 35.5808 21.4263 35.5168 21.7747L35.3568 22.7912L35.337 22.9181L35.3356 22.9264C35.3366 22.9193 35.331 22.9502 35.3312 22.9465L35.3189 23.0056L35.2694 23.2422C35.2351 23.3997 35.2055 23.5581 35.1693 23.7149L35.052 24.1822C35.032 24.2599 35.0139 24.3383 34.9924 24.4156L34.9236 24.6456L34.7856 25.1057L34.6283 25.5582C34.6015 25.6333 34.5773 25.7096 34.5487 25.7841L34.46 26.0058C34.3998 26.1532 34.3445 26.3028 34.281 26.4487C34.0269 27.0319 33.7391 27.5981 33.4186 28.144C33.0898 28.6845 32.733 29.207 32.3406 29.7014C31.943 30.1916 31.5157 30.6568 31.0597 31.0929C30.139 31.9559 29.1065 32.7037 27.9852 33.298C25.7483 34.4956 23.1969 35.1372 20.6508 35.1811C19.3787 35.1991 18.1064 35.0643 16.8975 34.7534C15.6917 34.4426 14.5435 33.9477 13.6071 33.245C13.1377 32.8963 12.7335 32.4904 12.4087 32.0446C12.2411 31.824 12.1103 31.5853 11.986 31.345C11.9568 31.2843 11.933 31.2212 11.9056 31.1598C11.881 31.0973 11.8473 31.0377 11.8294 30.9729C11.7899 30.8444 11.7359 30.7204 11.7094 30.588L11.6592 30.3922C11.6453 30.3262 11.6367 30.2588 11.6247 30.1924C11.6151 30.1251 11.5973 30.0597 11.5934 29.9913L11.5755 29.7872L11.5656 29.685L11.5647 29.5926L11.5607 29.4093C11.5548 29.3593 11.5653 29.258 11.5696 29.1759L11.5861 28.9193L11.6991 27.9862L11.8557 27.0109C12.0871 25.71 12.4058 24.4121 12.7751 23.1236C13.1429 21.8342 13.5637 20.5535 14.0205 19.283C14.4777 18.0125 14.9713 16.7517 15.4927 15.5004C16.0131 14.2488 16.5575 13.005 17.1269 11.7716C17.6952 10.5378 18.2889 9.31456 18.8962 8.0984C19.2011 7.49088 19.511 6.88598 19.826 6.28431C19.8288 6.27886 19.8318 6.27351 19.8346 6.26806L20.319 7.6357L20.8494 9.30235L20.9807 9.71984L21.1028 10.1416L21.3471 10.985L21.5908 11.8287L21.8195 12.6787C21.9694 13.2463 22.1294 13.8101 22.2713 14.3808L22.7031 16.0903C22.8451 16.6606 22.9784 17.2341 23.1165 17.8058L23.3213 18.6642L23.5183 19.5249C23.6478 20.0992 23.7842 20.6716 23.9084 21.2475L24.2873 22.9734L24.6539 24.7024L25.0113 26.4336L25.1896 27.321L25.1587 27.2831C25.0517 27.1516 24.9448 27.0205 24.8306 26.8944C24.6065 26.6396 24.3851 26.3837 24.1475 26.1408C24.0293 26.0188 23.9169 25.8929 23.7947 25.7748L23.4305 25.4198C23.3116 25.2996 23.1821 25.189 23.0571 25.0748C22.9299 24.9625 22.8086 24.845 22.6762 24.7386L22.2859 24.4137C22.1536 24.3081 22.0176 24.2065 21.8838 24.1033C21.7515 23.9982 21.6116 23.9023 21.4734 23.8047C21.3356 23.7069 21.1979 23.6093 21.0542 23.5197C20.7727 23.3328 20.4815 23.1607 20.1881 22.9948C20.0386 22.9158 19.8916 22.8338 19.7412 22.7579C19.5888 22.6851 19.4389 22.6088 19.2855 22.5395C18.9778 22.4025 18.6674 22.2736 18.3498 22.164C18.0344 22.0494 17.7104 21.9596 17.3867 21.8768C17.0607 21.8003 16.7321 21.7378 16.4008 21.6983C16.0691 21.6607 15.737 21.6378 15.4011 21.6621C15.3759 21.6639 15.3555 21.6844 15.3545 21.7104C15.3534 21.7381 15.3751 21.7616 15.4027 21.7628L15.4051 21.763C15.7263 21.7758 16.0495 21.8344 16.3645 21.9069C16.6802 21.9812 16.99 22.0771 17.2944 22.1855C17.5968 22.3006 17.8962 22.4208 18.1853 22.5645C18.4763 22.7029 18.7583 22.8594 19.0354 23.0222C19.1735 23.1042 19.308 23.1928 19.444 23.2776C19.5784 23.3655 19.7092 23.4593 19.8416 23.5496C20.1017 23.7378 20.3576 23.9307 20.6033 24.1369C20.7289 24.2362 20.8484 24.3433 20.9678 24.45C21.0875 24.5564 21.2084 24.6607 21.3222 24.7742C21.4372 24.8857 21.5539 24.995 21.6669 25.1081L21.9991 25.4547C22.1119 25.5676 22.2139 25.6922 22.3212 25.8104C22.4263 25.931 22.5356 26.0472 22.6348 26.1733L22.9387 26.5445C23.0406 26.6673 23.1334 26.7988 23.231 26.9252C23.4277 27.1768 23.6089 27.4413 23.7919 27.7033C23.8852 27.8328 23.9719 27.9674 24.0583 28.1025L24.3185 28.5053C24.4868 28.7777 24.6481 29.0546 24.812 29.3286C24.9659 29.6101 25.1224 29.889 25.2735 30.1709L25.7065 31.0287L26.1131 31.8997L26.1133 31.9001L26.1236 31.9194C26.3113 32.2668 26.7069 32.4695 27.1152 32.393C27.6216 32.2981 27.9554 31.8096 27.8606 31.3015L27.5342 29.5489L27.196 27.8027L26.8481 26.0588L26.4908 24.3167L26.1242 22.5763L25.7448 20.8382C25.6209 20.2586 25.484 19.681 25.3541 19.1021L25.1568 18.2344L24.9514 17.3681C24.8126 16.7907 24.679 16.2127 24.5361 15.636L24.1018 13.9071C23.9593 13.3305 23.7974 12.7569 23.6462 12.1815L23.4155 11.3193L23.1685 10.4595L22.9206 9.59985L22.7969 9.17004L22.663 8.74165C22.4818 8.17086 22.3053 7.59947 22.1201 7.02918L21.5187 5.32448C21.2962 4.75854 21.0607 4.19401 20.8316 3.62897L20.8314 3.62867C20.7582 3.44278 20.625 3.27838 20.4405 3.16859C19.9982 2.90549 19.4269 3.05172 19.1646 3.49525L19.1393 3.53784C18.7789 4.14718 18.4404 4.74229 18.1042 5.34981C17.7691 5.95522 17.4397 6.56315 17.1154 7.1738C16.4662 8.3948 15.8454 9.63063 15.2424 10.8763C14.037 13.3678 12.9239 15.9095 11.9482 18.5181C10.9764 21.1271 10.1227 23.8003 9.60134 26.598L9.42423 27.6531L9.3549 28.187L9.32059 28.454L9.30348 28.5876L9.29493 28.6542C9.29694 28.6269 9.28718 28.7289 9.28758 28.7301L9.28527 28.7622L9.26685 29.0188C9.26152 29.1079 9.25206 29.1774 9.25337 29.2988L9.25327 29.6299C9.25387 29.6847 9.25357 29.7412 9.25548 29.7947L9.26746 29.949L9.29312 30.2574C9.30026 30.3603 9.3226 30.4625 9.33719 30.565C9.3545 30.6674 9.36909 30.77 9.38982 30.8719L9.46338 31.1755C9.50725 31.3794 9.58212 31.5746 9.64592 31.7729C9.67601 31.873 9.72229 31.9665 9.76063 32.0633C9.80159 32.1588 9.84003 32.2558 9.8842 32.3499C10.068 32.7215 10.2707 33.0844 10.5135 33.4136C10.9909 34.0785 11.5644 34.655 12.1925 35.1247C13.4509 36.0694 14.8708 36.6639 16.308 37.0398C17.7494 37.4123 19.2216 37.5671 20.6842 37.5491C23.6059 37.501 26.515 36.7854 29.1012 35.3825C30.3958 34.6887 31.5984 33.8136 32.6714 32.7984C33.2037 32.2857 33.7025 31.7385 34.1652 31.1618C34.6231 30.5811 35.0384 29.9685 35.4185 29.3358C35.7901 28.6984 36.1215 28.039 36.412 27.3637C36.4845 27.1948 36.5483 27.0227 36.6168 26.8525L36.7176 26.5963C36.75 26.5105 36.778 26.4232 36.8082 26.3369L36.9863 25.817L37.1419 25.2913L37.2192 25.0282C37.2432 24.9403 37.2636 24.8514 37.286 24.7631L37.4169 24.2319C37.4576 24.0545 37.4902 23.8757 37.5264 23.6975L37.5795 23.4299L37.5928 23.3631C37.5974 23.3372 37.5918 23.3737 37.6048 23.2967L37.6093 23.2649L37.6283 23.1375C37.725 22.4545 37.8423 21.802 37.8928 21.0476L37.9408 20.4991C37.9481 20.4079 37.9579 20.316 37.9631 20.2253L37.9705 19.9551L37.9982 18.8746C38.0027 18.7856 37.9978 18.6951 37.9947 18.6048Z" fill="#4A6CF7"/></svg>
