<svg width="102" height="84" viewBox="0 0 102 84" fill="none" xmlns="http://www.w3.org/2000/svg">
<g clip-path="url(#clip0_2_1109)">
<path fill-rule="evenodd" clip-rule="evenodd" d="M85.8698 40.5948C85.4059 36.5784 83.1707 33.1656 79.7618 31.3632C77.9319 30.396 75.872 30.0168 73.7865 30H51.0956C52.6917 30.2952 54.7747 30.3804 56.2783 30.7836C57.6175 31.1424 58.7522 31.7616 59.6433 32.5968C61.1092 33.9696 61.9261 35.9352 61.9261 38.2896C61.9261 40.6956 61.0836 42.6876 59.5739 44.0736C58.0558 45.468 55.8546 46.2612 53.147 46.2612V46.26H46.9648V46.686V53.6148L44.9231 53.9988H73.4152C76.2397 53.9652 78.2461 53.5956 80.457 52.374C82.3842 51.3096 84.0144 49.74 85.1332 47.7264L79.6449 46.1832C78.6296 47.796 77.0055 48.8004 75.1635 49.0548C74.4975 49.1472 73.6623 49.146 73.0049 49.0236C70.615 48.5772 68.4078 46.4196 68.2142 43.9944H85.9379C86.0585 42.9276 85.983 41.5836 85.8698 40.5948ZM68.4699 39.372C69.2551 36.3588 71.3187 34.9284 73.7123 34.8672C73.9095 34.8624 74.1091 34.8624 74.3064 34.8672C76.6853 34.9404 78.7355 36.372 79.5171 39.3708H68.4699V39.372Z" fill="url(#paint0_linear_2_1109)"/>
<path d="M28.1587 45.8328L23.099 54H16L23.6444 41.9652L16.073 30H23.1708L28.1587 38.0964L33.1819 30H40.2809L32.7084 41.9652L40.354 54H33.255L28.1587 45.8328Z" fill="black"/>
<path d="M53.4028 30C58.8996 30 62.3584 33.3312 62.3584 38.274C62.3584 43.2168 58.7912 46.656 53.1483 46.656H47.3971V53.9988H41.3901V30H53.4028ZM52.7112 41.6556C55.0415 41.6556 56.461 40.3368 56.461 38.3052C56.461 36.3804 55.0415 35.0268 52.7112 35.0268H47.3971V41.6556H52.7112Z" fill="black"/>
</g>
<defs>
<linearGradient id="paint0_linear_2_1109" x1="44.9231" y1="41.9988" x2="86" y2="41.9988" gradientUnits="userSpaceOnUse">
<stop stop-color="#7DDD00"/>
<stop offset="1" stop-color="#16B364"/>
</linearGradient>
<clipPath id="clip0_2_1109">
<rect width="70" height="24" fill="white" transform="translate(16 30)"/>
</clipPath>
</defs>
</svg>
